<svg width="40" height="40" viewBox="0 0 40 40" fill="none" xmlns="http://www.w3.org/2000/svg">
<path d="M40 20C40 31.0458 31.0458 40 20 40C8.95416 40 0 31.0458 0 20C0 8.95416 8.95416 0 20 0C31.0458 0 40 8.95416 40 20Z" fill="#960316"/>
<path d="M39.7498 9.33961L34.7198 15.5835C34.2261 16.1963 33.7 16.7825 33.1433 17.3392C30.95 19.5322 27.7252 20.0623 25.0317 18.9319L7.97882 35.9848C6.51642 34.8831 5.21057 33.5852 4.09912 32.1304L21.1264 15.1032C19.921 12.3831 20.4309 9.08662 22.6608 6.8567C23.2175 6.30006 23.8037 5.77393 24.4165 5.28016L30.6604 0.250251C31.1218 -0.121453 31.7944 -0.0750661 32.2003 0.363472C32.5861 0.780036 32.5845 1.42548 32.2284 1.86768L26.8195 8.58216C26.626 8.82233 26.6449 9.16962 26.8628 9.38752C27.0807 9.60542 27.428 9.62434 27.6682 9.43085L34.4101 3.99964C34.8715 3.62794 35.5441 3.67432 35.95 4.11286C36.3358 4.52943 36.3342 5.17518 35.9781 5.61738L30.5692 12.3319C30.3757 12.572 30.3943 12.919 30.6122 13.1372C30.8304 13.3551 31.1774 13.3737 31.4175 13.1802L38.1595 7.74934C38.6093 7.38679 39.2603 7.42188 39.6686 7.83021C40.0769 8.23884 40.1123 8.88947 39.7498 9.33961Z" fill="#68828D"/>
<path d="M15.271 26.4279C15.8963 27.0532 15.8963 28.0673 15.271 28.6926L7.97913 35.9848C7.1225 35.3397 6.31989 34.6274 5.57831 33.8556L13.006 26.4279C13.6313 25.8023 14.6454 25.8023 15.271 26.4279ZM39.7598 7.93487C39.6933 7.86834 39.6271 7.80242 39.5618 7.73742C39.1528 7.42004 38.5721 7.41729 38.1598 7.74932L31.4178 13.1805C31.1777 13.374 30.8304 13.3551 30.6125 13.1372C30.3946 12.9193 30.3757 12.572 30.5692 12.3318L35.9781 5.61736C36.3303 5.18005 36.3348 4.54376 35.9619 4.12689C35.9286 4.09393 35.8954 4.06127 35.8624 4.02862C35.4523 3.67065 34.8398 3.65386 34.4101 3.99993L27.6682 9.43084C27.428 9.62432 27.081 9.60571 26.8628 9.38781C26.6449 9.16961 26.6263 8.82263 26.8198 8.58245L29.7409 4.95605L26.6129 7.47588C25.9998 7.96996 25.4135 8.49609 24.8572 9.05273C22.3392 11.5707 22.012 15.4495 23.8745 18.3215C26.7468 20.1843 30.6253 19.8572 33.1433 17.3392C33.7 16.7825 34.2264 16.1966 34.7202 15.5835L39.7501 9.33959C40.0827 8.92608 40.0793 8.3435 39.7598 7.93487Z" fill="#7F969F"/>
<path d="M35.2466 32.9422C34.061 34.3375 32.6883 35.5685 31.1658 36.5952L11.8655 17.2952L15.7327 13.428L35.2466 32.9422Z" fill="#8F4A4B"/>
<path d="M31.1658 36.5952L11.8655 17.2952L14.0753 15.0854L33.627 34.6371C32.8601 35.3516 32.0377 36.0074 31.1658 36.5952Z" fill="#783D3E"/>
<path d="M3.00479 0.700384L24.0189 21.7145L17.2574 24.6124C16.6703 24.8642 15.9888 24.7327 15.5368 24.281L7.02975 15.7739C3.13601 11.8802 1.38705 6.33149 2.34408 0.908819C2.39902 0.597539 2.7814 0.476995 3.00479 0.700384Z" fill="#9BB9C3"/>
<path d="M8.68716 14.1165L18.6054 24.0347L17.2574 24.6124C16.6703 24.8642 15.9888 24.7327 15.5371 24.281L7.02975 15.7739C3.13601 11.8802 1.38705 6.33149 2.34408 0.908819C2.39902 0.597539 2.7814 0.476995 3.00479 0.700384L3.76163 1.45722C3.55929 6.14686 5.32077 10.7501 8.68716 14.1165ZM19.5996 19.5047C18.9896 18.8947 18.0002 18.8947 17.3899 19.5047C16.7798 20.1151 16.7798 21.1044 17.3899 21.7145C18.0002 22.3248 18.9896 22.3248 19.5996 21.7145C20.2097 21.1044 20.2097 20.1151 19.5996 19.5047Z" fill="#87A0AF"/>
</svg>
