<svg width="40" height="40" viewBox="0 0 40 40" fill="none" xmlns="http://www.w3.org/2000/svg">
<path d="M38.7092 20.2233C38.7092 30.6791 30.2329 39.1554 19.7767 39.1554C9.3209 39.1554 0.844604 30.6791 0.844604 20.2233C0.844604 9.76715 9.3209 1.29085 19.7767 1.29085C30.2325 1.29085 38.7092 9.76715 38.7092 20.2233Z" fill="#9BB9C3"/>
<path d="M19.7768 0.446243C9.15828 0.446243 0.495579 8.81499 0.0214844 19.3167C0.499538 30.5112 9.48886 39.5005 20.6834 39.9785C31.1847 39.5045 39.5535 30.8418 39.5535 20.2233C39.5538 9.30063 30.6994 0.446243 19.7768 0.446243ZM19.7768 37.1822C10.4107 37.1822 2.81788 29.5894 2.81788 20.2233C2.81788 10.8572 10.4107 3.26442 19.7768 3.26442C29.1428 3.26442 36.7356 10.8572 36.7356 20.2233C36.7356 29.5894 29.1428 37.1822 19.7768 37.1822Z" fill="#B4D2D7"/>
<path d="M21.497 39.9238C21.2271 39.9469 20.9562 39.9663 20.6834 39.9785C9.48886 39.5005 0.499538 30.5112 0.0214844 19.3167C0.495579 8.81499 9.15828 0.446243 19.7767 0.446243C20.0555 0.446243 20.3323 0.453501 20.6085 0.465049C20.5016 0.469668 20.3953 0.474616 20.2891 0.480885C3.8954 1.42545 -3.71882 21.1744 7.50934 33.1568C11.0715 36.9585 15.9922 39.4718 21.497 39.9238Z" fill="#9BB9C3"/>
<path d="M31.3368 18.7733C31.2316 18.8106 31.1257 18.8442 31.0198 18.8762C31.0683 19.0105 31.1072 19.1468 31.1339 19.2847C31.4998 21.1824 29.6018 22.6792 26.8512 22.7218C24.5801 24.6412 21.5458 25.3242 19.7444 24.3001C17.8342 25.3859 14.5376 24.5532 12.2348 22.3618C9.85012 20.0923 9.43509 17.2253 11.3077 15.9581C11.4387 15.8697 11.5782 15.7921 11.7241 15.7235C11.665 15.6137 11.6076 15.5025 11.5532 15.389C10.189 12.5342 10.9062 9.71403 13.1553 9.09081C13.8732 8.89187 14.66 8.94135 15.4436 9.19275C15.7026 6.46927 17.5287 4.35811 19.7444 4.35811C20.9295 4.35811 22.003 4.96252 22.785 5.94139C23.7803 5.15322 24.9677 4.95493 26.0149 5.54747C26.5899 5.8731 27.0528 6.398 27.3863 7.04728C29.258 5.50095 31.7284 5.32213 33.1187 6.71242C34.509 8.1027 34.3302 10.5731 32.7838 12.4448C33.4331 12.7783 33.958 13.2412 34.2836 13.8162C35.3034 15.6186 33.9841 17.8383 31.3368 18.7733Z" fill="#509C49"/>
<path d="M27.2537 22.3618C26.0448 23.5123 24.5622 24.2876 23.1498 24.6083C23.777 24.2483 24.3804 23.8056 24.9274 23.2849C27.312 21.0154 27.7271 18.1484 25.8545 16.8812C25.7235 16.7928 25.5839 16.7153 25.4381 16.6466C25.4972 16.5368 25.5546 16.4256 25.609 16.3121C26.9732 13.4573 26.256 10.6375 24.0069 10.0139C23.5361 9.88328 23.0353 9.85985 22.5256 9.93012C22.093 9.98984 21.6826 9.71139 21.5879 9.28513C21.0743 6.9747 19.4022 5.28122 17.4178 5.28122C17.3914 5.28122 17.3656 5.28287 17.3392 5.28353C18.0274 4.69925 18.8542 4.35811 19.7443 4.35811C21.8327 4.35811 23.575 6.2337 23.9851 8.73021C24.0241 8.96577 24.253 9.12479 24.486 9.07299C25.1214 8.93179 25.7502 8.92915 26.3332 9.09081C28.5822 9.71436 29.2995 12.5342 27.9353 15.389C27.8812 15.5025 27.8234 15.6137 27.7647 15.7235C27.9102 15.7921 28.0497 15.8697 28.1811 15.9584C30.0537 17.2253 29.6383 20.0923 27.2537 22.3618Z" fill="#46853E"/>
<path d="M23.9647 16.5394C23.9416 17.4817 23.771 18.4005 23.4886 19.2431C23.7713 20.5107 23.6862 21.7198 23.1742 22.6205C24.2599 24.5307 23.4272 27.8273 21.2359 30.1301C18.9664 32.5148 16.099 32.9298 14.8322 31.0572C14.7434 30.9262 14.6662 30.7867 14.5976 30.6408C14.4877 30.6999 14.3765 30.7573 14.263 30.8117C11.4079 32.176 8.5881 31.4587 7.96488 29.2096C7.76561 28.4917 7.81542 27.7049 8.06682 26.9213C5.34333 26.6623 3.23218 24.8362 3.23218 22.6205C3.23218 21.5677 3.70924 20.6037 4.50171 19.8531C4.11141 18.958 4.11702 17.998 4.61157 17.1244C4.97811 16.4761 5.56999 15.9548 6.30175 15.5787C4.55912 13.4695 4.35753 10.6853 5.92399 9.11885C7.49078 7.55206 10.2746 7.75364 12.3842 9.49628C12.7603 8.76452 13.2815 8.17297 13.9298 7.8061C15.9608 6.65666 18.4619 8.14328 19.516 11.1267C19.5579 11.2455 19.5959 11.3646 19.6318 11.484C19.7833 11.4296 19.937 11.3857 20.0924 11.3557C22.3124 10.9275 24.0462 13.2485 23.9647 16.5394Z" fill="#B8EB6A"/>
<path d="M23.9647 16.5394C23.9581 16.8073 23.9386 17.0732 23.9092 17.3358C23.5942 14.7077 22.0284 12.9905 20.0924 13.3639C20.0535 13.3715 20.0149 13.3798 19.9763 13.389C19.7813 13.4352 19.585 13.3303 19.5183 13.1412C19.5177 13.1393 19.517 13.1373 19.516 13.1353C18.4623 10.1518 15.9611 8.66488 13.9298 9.81432C13.2815 10.1812 12.7603 10.7727 12.3842 11.5045C10.275 9.76187 7.49078 9.56029 5.92432 11.1271C5.43967 11.6114 5.12493 12.2125 4.97184 12.874C4.67756 11.456 4.97778 10.0654 5.92432 9.11885C7.49078 7.55206 10.275 7.75364 12.3842 9.49661C12.7603 8.76485 13.2815 8.17297 13.9298 7.8061C15.9611 6.65666 18.4623 8.14361 19.516 11.1271C19.5579 11.2455 19.5959 11.3649 19.6322 11.4844C19.7836 11.4296 19.937 11.3857 20.0924 11.3557C22.3124 10.9275 24.0462 13.2485 23.9647 16.5394ZM14.8322 14.1841C14.7434 14.3151 14.6662 14.4546 14.5976 14.6005C14.4877 14.5414 14.3765 14.484 14.263 14.4296C11.4082 13.0654 8.58843 13.7826 7.96488 16.0317C7.76594 16.7496 7.81542 17.5364 8.06715 18.3197C5.34333 18.579 3.23218 20.4051 3.23218 22.6208C3.23218 24.0157 4.06951 25.2559 5.36907 26.048C5.06191 25.5079 4.89068 24.9095 4.89068 24.2793C4.89068 22.0636 7.00184 20.2375 9.72566 19.9785C9.47426 19.1949 9.42444 18.4081 9.62338 17.6902C10.2469 15.4411 13.0668 14.7239 15.9216 16.0884C16.035 16.1425 16.1462 16.1999 16.2561 16.259C16.3247 16.1132 16.4022 15.9736 16.491 15.8426C17.5731 14.2432 19.8225 14.3141 21.87 15.8545C21.6734 15.5978 21.4622 15.3491 21.2359 15.1112C18.9664 12.7265 16.0994 12.3112 14.8322 14.1841Z" fill="#A1E52E"/>
<path d="M10.1351 19.5608C10.1351 20.0273 9.75702 20.4054 9.29052 20.4054C8.82401 20.4054 8.44592 20.0273 8.44592 19.5608C8.44592 19.0943 8.82401 18.7162 9.29052 18.7162C9.75702 18.7162 10.1351 19.0943 10.1351 19.5608ZM12.6689 10.2703C12.2024 10.2703 11.8243 10.6484 11.8243 11.1149C11.8243 11.5814 12.2024 11.9595 12.6689 11.9595C13.1354 11.9595 13.5135 11.5814 13.5135 11.1149C13.5135 10.6484 13.1354 10.2703 12.6689 10.2703ZM21.9594 14.4932C21.4929 14.4932 21.1148 14.8713 21.1148 15.3378C21.1148 15.8043 21.4929 16.1824 21.9594 16.1824C22.4259 16.1824 22.804 15.8043 22.804 15.3378C22.804 14.8713 22.4259 14.4932 21.9594 14.4932ZM16.8919 15.3378C16.4254 15.3378 16.0473 15.7159 16.0473 16.1824C16.0473 16.6489 16.4254 17.027 16.8919 17.027C17.3584 17.027 17.7365 16.6489 17.7365 16.1824C17.7365 15.7159 17.3584 15.3378 16.8919 15.3378ZM31.25 13.6486C30.7835 13.6486 30.4054 14.0267 30.4054 14.4932C30.4054 14.9597 30.7835 15.3378 31.25 15.3378C31.7165 15.3378 32.0946 14.9597 32.0946 14.4932C32.0946 14.0267 31.7165 13.6486 31.25 13.6486Z" fill="#31662B"/>
<path d="M24.0098 32.8091C23.5466 33.0199 23.2731 33.431 23.2731 33.8645V35.1858C23.2731 35.9057 22.539 36.4857 21.6499 36.4514C20.8169 36.4191 20.1762 35.8321 20.1762 35.1499V35.1419C20.1762 34.4547 19.485 33.9143 18.6453 33.9189C18.6394 33.9189 18.6338 33.9189 18.6278 33.9189C17.1063 33.9189 15.8921 32.8414 16.0634 31.5679C16.1924 30.6098 21.806 28.7596 23.0306 28.8629C24.2246 28.9635 25.1909 29.7478 25.3216 30.724C25.4413 31.6168 24.8805 32.4128 24.0098 32.8091Z" fill="#FDBF43"/>
<path d="M23.2731 35.1V35.1858C23.2731 35.9057 22.539 36.4857 21.6499 36.4514C20.8172 36.419 20.1765 35.8321 20.1765 35.1498V35.1419C20.1765 34.4547 19.4853 33.9143 18.6453 33.9189C18.6394 33.9189 18.6338 33.9189 18.6278 33.9189C17.1063 33.9189 15.8921 32.8411 16.0634 31.5679C16.1046 31.2621 16.7044 30.8655 17.5417 30.4706C17.5513 31.6303 18.7024 32.5679 20.1221 32.5679H20.1395C20.9795 32.5633 21.6704 33.104 21.6704 33.7912V33.7992C21.6704 34.4814 22.3111 35.0684 23.1441 35.1004C23.1873 35.102 23.2306 35.101 23.2731 35.1Z" fill="#FCB30B"/>
<path d="M34.4462 29.2331C33.8969 30.1753 33.1209 30.9707 32.1595 31.4854C30.5459 32.3495 28.6429 32.8486 26.6047 32.8486C26.2965 32.8486 25.9914 32.8371 25.6901 32.8147C24.2157 32.7051 22.8551 32.0146 21.8416 30.9384C21.0983 30.1492 20.2056 29.4696 19.2 28.9318C17.2917 27.9107 16.0604 25.9431 16.0472 23.7792C16.0472 23.763 16.0472 23.7468 16.0472 23.7307C16.0472 19.862 18.837 16.5562 22.7743 15.2319C24.5301 14.6414 26.4483 14.7816 28.116 15.5882C29.2754 16.1491 30.7099 16.6031 31.9058 16.9271C34.9038 17.739 37.0714 20.4004 37.1588 23.505C37.1608 23.5802 37.1621 23.6554 37.1621 23.7307C37.1621 23.7412 37.1621 23.7518 37.1618 23.7623C37.1562 25.1945 36.6118 26.5812 35.6375 27.6313C35.1793 28.1255 34.7791 28.6623 34.4462 29.2331Z" fill="#8F4A4B"/>
<path d="M37.1592 23.505C37.1612 23.5802 37.1622 23.6554 37.1622 23.7307V23.7623C37.1566 25.1945 36.6119 26.5812 35.6379 27.6313C35.1794 28.1255 34.7792 28.6623 34.4463 29.2331C33.897 30.1753 33.121 30.9708 32.1596 31.4854C30.9471 32.1347 29.571 32.5778 28.0973 32.7579C26.806 32.5504 25.6252 31.8988 24.7209 30.9384C23.9776 30.1493 23.0848 29.4696 22.0796 28.9318C20.1713 27.9107 18.9397 25.9431 18.9268 23.7792C18.9268 23.763 18.9265 23.7468 18.9265 23.7307C18.9265 19.862 21.7166 16.5562 25.6539 15.2319C25.9132 15.1445 26.1765 15.0752 26.4418 15.0198C27.0168 15.1392 27.5793 15.3286 28.1161 15.5882C29.2754 16.1491 30.7103 16.6031 31.9059 16.9271C34.9039 17.739 37.0718 20.4005 37.1592 23.505Z" fill="#B7696A"/>
<path d="M34.8346 25.2325L34.44 24.9309L35.1596 24.2117C35.4891 23.8818 35.4891 23.347 35.1596 23.017L34.9966 22.8544C34.6667 22.5245 34.1319 22.5245 33.8023 22.8544L32.9016 23.7551L30.6324 22.0204L32.246 20.4067C32.576 20.0768 32.576 19.542 32.246 19.2121L32.0834 19.0494C31.7535 18.7195 31.2187 18.7195 30.8887 19.0494L29.094 20.8442L26.8248 19.1098L27.4817 18.4529C27.8113 18.1233 27.8113 17.5885 27.4817 17.2586L27.3187 17.0956C26.9888 16.7657 26.454 16.7657 26.124 17.0956L25.2864 17.9336L24.3148 17.191C23.9443 16.9079 23.4141 16.9785 23.131 17.349L22.9911 17.5321C22.7077 17.9026 22.7787 18.4328 23.1492 18.7162L23.9169 19.3031L22.1446 21.0751L21.4352 20.5331C21.0647 20.2497 20.5345 20.3206 20.2515 20.6911L20.1116 20.8742C19.8282 21.2447 19.8991 21.7749 20.2696 22.0583L20.7751 22.4446L20.0862 23.1335C19.7563 23.4634 19.7563 23.9982 20.0862 24.3281L20.2488 24.4908C20.5788 24.8207 21.1136 24.8207 21.4435 24.4908L22.3135 23.6205L24.5827 25.3552L22.9654 26.9728C22.6355 27.3024 22.6355 27.8372 22.9654 28.1671L23.1284 28.3297C23.458 28.6597 23.9928 28.6597 24.3227 28.3297L26.1214 26.531L28.3906 28.2657L27.2844 29.372C26.9545 29.7019 26.9545 30.2367 27.2844 30.5663L27.4474 30.7292C27.7769 31.0592 28.3117 31.0592 28.6417 30.7292L29.929 29.4419L30.8993 30.1832C31.2698 30.4666 31.8 30.3957 32.0831 30.0252L32.2229 29.8421C32.5063 29.4716 32.4354 28.9414 32.0649 28.6583L31.2985 28.0724L33.0708 26.3001L33.6687 26.7573C34.0395 27.0404 34.5693 26.9698 34.8527 26.5993L34.9926 26.4162C35.2757 26.0457 35.2051 25.5159 34.8346 25.2325ZM23.683 22.2513L25.4553 20.479L27.7245 22.2137L25.9522 23.9857L23.683 22.2513ZM29.7598 26.8966L27.4906 25.1619L29.2629 23.3899L31.5321 25.1242L29.7598 26.8966Z" fill="#783D3E"/>
<path d="M21.1148 28.4291C21.1148 32.394 17.9007 35.6081 13.9358 35.6081C9.97079 35.6081 6.75671 32.394 6.75671 28.4291C6.75671 24.4641 9.97079 21.25 13.9358 21.25C17.9007 21.25 21.1148 24.4641 21.1148 28.4291Z" fill="#E84444"/>
<path d="M13.9358 21.25C14.3683 21.25 14.7913 21.2906 15.2027 21.3638C13.3314 21.697 11.7114 22.7554 10.6425 24.2374C11.2103 24.3176 11.6831 24.7346 11.823 25.3044L12.1516 26.6448L10.8111 26.3162C10.397 26.2146 10.0638 25.9365 9.88171 25.5746C9.61778 26.183 9.43566 26.8346 9.34922 27.5162C9.64912 27.4852 9.95957 27.5482 10.2321 27.7135L11.4129 28.4291L10.2321 29.1446C9.95957 29.3096 9.64912 29.373 9.34922 29.3416C9.43566 30.0236 9.61778 30.6751 9.88171 31.2832C10.0642 30.9213 10.397 30.6435 10.8111 30.5419L12.1516 30.2129L11.823 31.5537C11.6831 32.1235 11.2103 32.5405 10.6425 32.6207C11.7111 34.1027 13.3314 35.1611 15.2027 35.4943C14.7913 35.5679 14.3683 35.6081 13.9358 35.6081C9.97079 35.6081 6.75671 32.394 6.75671 28.4291C6.75671 24.4641 9.97079 21.25 13.9358 21.25ZM13.9358 27.1622C13.236 27.1622 12.6689 27.7293 12.6689 28.4291C12.6689 29.1288 13.236 29.6959 13.9358 29.6959C14.6355 29.6959 15.2027 29.1288 15.2027 28.4291C15.2027 27.7293 14.6355 27.1622 13.9358 27.1622ZM13.9358 25.9062L14.6514 24.7254C14.9902 24.1662 14.9034 23.4479 14.4409 22.9854C14.4396 22.9837 14.4379 22.9824 14.4366 22.9808C14.1621 22.7092 13.7091 22.7092 13.4349 22.9808C13.4333 22.9824 13.432 22.9837 13.4303 22.9854C12.9681 23.4476 12.8813 24.1662 13.2202 24.7254L13.9358 25.9062ZM13.9358 30.952L13.2202 32.1327C12.8813 32.6919 12.9681 33.4102 13.4307 33.8727C13.432 33.8744 13.4336 33.8757 13.4349 33.8773C13.7094 34.1489 14.1624 34.1489 14.4366 33.8773C14.4382 33.8757 14.4396 33.8744 14.4412 33.8727C14.9034 33.4105 14.9902 32.6919 14.6514 32.1327L13.9358 30.952ZM19.3837 27.9282C19.3824 27.9269 19.3808 27.9253 19.3794 27.9239C18.9169 27.4614 18.1987 27.3746 17.6394 27.7135L16.4587 28.4291L17.6394 29.1446C18.1987 29.4835 18.9169 29.3967 19.3794 28.9342C19.3811 28.9328 19.3824 28.9312 19.3841 28.9299C19.6556 28.6557 19.6556 28.2024 19.3837 27.9282ZM17.0604 30.5419L15.7196 30.2129L16.0486 31.5537C16.2043 32.1888 16.7737 32.6355 17.4276 32.6355H17.4342C17.8202 32.6339 18.1406 32.3135 18.1422 31.9275C18.1422 31.9252 18.1422 31.9232 18.1422 31.9213C18.1422 31.267 17.6955 30.6976 17.0604 30.5419ZM18.1422 24.9372C18.1422 24.9349 18.1422 24.9329 18.1422 24.9306C18.1406 24.5446 17.8199 24.2242 17.4339 24.2226C17.4319 24.2226 17.4299 24.2226 17.4276 24.2226C16.7737 24.2226 16.2043 24.6693 16.0486 25.3044L15.7196 26.6452L17.0604 26.3162C17.6955 26.1605 18.1422 25.5911 18.1422 24.9372Z" fill="#C92C2C"/>
</svg>
