<svg width="249" height="164" viewBox="0 0 249 164" fill="none" xmlns="http://www.w3.org/2000/svg">
<path d="M5.33831 140.638V60.8884C5.33831 58.7733 4.95422 57.2831 4.18603 56.4178C3.41784 55.4564 2.0255 54.9757 0.00900227 54.9757C-0.0870213 52.476 0.585138 50.5051 2.02549 49.063C3.46585 47.6208 5.77041 46.8998 8.93919 46.8998C12.204 46.8998 14.4605 48.4861 15.7089 51.6588C19.4538 48.4861 23.2947 46.8998 27.2317 46.8998C36.738 46.8998 41.4912 51.6107 41.4912 61.0326V86.2697C41.4912 90.6922 40.0988 94.0572 37.3142 96.3645C40.579 98.5758 42.2114 102.229 42.2114 107.325V125.351C42.2114 130.158 40.531 133.908 37.1701 136.6C33.9053 139.292 29.4402 140.638 23.7748 140.638H5.33831ZM24.495 56.4178C21.9024 56.4178 19.3097 57.7157 16.7171 60.3115V92.0382H23.7748C25.6953 92.0382 27.2317 91.5094 28.384 90.4519C29.5362 89.3943 30.1124 88.0003 30.1124 86.2697V61.8979C30.1124 58.2445 28.2399 56.4178 24.495 56.4178ZM16.7171 101.556V131.12H24.0629C26.0794 131.12 27.7118 130.639 28.9601 129.678C30.2084 128.62 30.8326 127.178 30.8326 125.351V107.325C30.8326 105.498 30.2084 104.104 28.9601 103.143C27.7118 102.085 26.0794 101.556 24.0629 101.556H16.7171Z" fill="#171E29"/>
<path d="M74.3458 81.7991C74.3458 77.0882 74.0098 73.1464 73.3376 69.9737C76.2183 69.5892 79.339 69.3969 82.6999 69.3969C84.3323 69.3969 85.1485 70.1179 85.1485 71.5601V150.877C85.1485 155.203 83.6121 158.472 80.5394 160.683C77.5626 162.894 73.5297 164 68.4404 164C63.3512 164 59.4142 163.039 56.6295 161.116C53.8448 159.193 52.4525 156.549 52.4525 153.184V147.848C52.4525 146.214 53.6048 145.06 55.9093 144.387C57.0616 144.099 58.2619 143.955 59.5102 143.955C60.8546 143.955 62.1509 144.099 63.3992 144.387C63.1111 146.695 62.9671 148.714 62.9671 150.444V151.165C62.9671 153.569 64.8395 154.77 68.5844 154.77C72.4254 154.77 74.3458 153.088 74.3458 149.723V135.446C71.9453 137.85 68.8245 139.051 64.9836 139.051C61.2386 139.051 58.2139 137.85 55.9093 135.446C53.6048 132.946 52.4525 129.341 52.4525 124.63V81.9433C52.4525 79.9244 52.0684 78.4823 51.3002 77.617C50.6281 76.7517 49.2837 76.3191 47.2672 76.3191C47.1712 73.9155 47.8434 72.0408 49.2837 70.6948C50.8201 69.2527 52.9326 68.5316 55.6213 68.5316C58.3099 68.5316 60.2304 69.3008 61.3827 70.839C62.631 72.3773 63.2551 74.925 63.2551 78.4823V124.486C63.2551 127.659 64.5034 129.245 67.0001 129.245C68.3444 129.245 69.7367 128.812 71.1771 127.947C72.6174 126.986 73.6737 125.928 74.3458 124.774V81.7991Z" fill="#171E29"/>
<path d="M157.874 83.9623C157.874 82.0395 157.298 80.5493 156.145 79.4917C154.993 78.338 153.553 77.7612 151.824 77.7612C148.272 77.7612 146.495 79.2514 146.495 82.2318V102.854L153.409 97.6625C156.386 95.4512 157.874 90.8845 157.874 83.9623ZM135.692 127.803V82.6644C135.692 73.2426 141.214 68.5316 152.257 68.5316C163.395 68.5316 168.965 73.8194 168.965 84.3949C168.965 88.6252 168.196 92.5189 166.66 96.0761C165.124 99.6333 163.011 102.325 160.322 104.152L146.495 113.67V126.793C146.495 130.831 148.368 132.85 152.112 132.85C155.953 132.85 157.874 130.591 157.874 126.072V122.755L157.442 115.977C158.69 115.689 159.938 115.545 161.187 115.545C162.531 115.545 163.779 115.737 164.932 116.122C167.236 116.698 168.388 117.804 168.388 119.438V129.822C168.388 133.667 166.852 136.696 163.779 138.907C160.803 141.022 156.818 142.08 151.824 142.08C141.07 142.08 135.692 137.321 135.692 127.803Z" fill="#171E29"/>
<path d="M191.057 53.6897C186.326 53.6897 183.96 50.55 183.96 44.2708C183.96 37.9916 186.326 34.852 191.057 34.852C195.788 34.852 198.154 37.9916 198.154 44.2708C198.154 50.55 195.788 53.6897 191.057 53.6897ZM175.031 59.8306H197.328V126.923C197.328 129.236 197.713 130.888 198.484 131.88C199.364 132.871 200.959 133.367 203.27 133.367C203.38 136.231 202.61 138.434 200.959 139.977C199.419 141.519 197.108 142.29 194.028 142.29C190.947 142.29 188.636 141.354 187.096 139.481C185.665 137.608 184.95 134.524 184.95 130.227V70.4094H173.798C173.028 67.5452 172.643 65.0665 172.643 62.9734C172.643 60.7702 173.6 59.8306 175.031 59.8306Z" fill="#E76F00"/>
<path d="M249 127.914C249 132.541 247.24 136.121 243.719 138.655C240.198 141.078 235.687 142.29 230.186 142.29C224.794 142.29 220.448 140.913 217.147 138.159C213.957 135.295 212.361 131.494 212.361 126.757V69.5832L207.245 70.4094C206.475 67.5452 206.09 65.0665 206.09 62.9734C206.09 60.7702 206.796 59.8306 208.226 59.8306H212.753V46.2433C213.193 43.8197 217.477 40.5004 221.108 40.5004C222.209 40.5004 223.419 40.6105 224.739 40.8309V59.6686H247.457C248.007 62.5328 248.505 64.2403 248.505 66.4435C248.505 68.5366 247.79 69.5832 246.359 69.5832H224.739V124.774C224.739 127.088 225.289 128.905 226.39 130.227C227.6 131.439 229.085 132.045 230.846 132.045C234.917 132.045 236.952 129.346 236.952 123.948V111.885L236.457 104.119C237.887 103.788 239.318 103.623 240.748 103.623C242.288 103.623 243.719 103.844 245.039 104.284C247.68 104.945 249 106.212 249 108.085V127.914Z" fill="#E76F00"/>
<path d="M63.4271 49.4726C68.6474 55.218 57.3376 64.3598 57.3376 64.3598C57.3376 64.3598 79.8154 52.8588 73.7279 44.6677C68.0423 37.0291 63.3725 29.6367 86.0061 16.0494C86.0061 16.0494 48.2839 29.6367 63.4271 49.4726Z" fill="#E76F00"/>
<path d="M67.9017 0C67.9017 0 99.582 38.1931 81.2723 54.9068C67.1875 68.3141 55.6213 55.8589 55.6213 55.8589C47.2672 46.0436 51.3017 32.6561 54.1124 28.6843C58.8461 20.5785 71.3281 17.5591 67.9017 0Z" fill="#E76F00"/>
<path d="M129.764 130.071C129.764 134.188 128.154 137.374 124.935 139.629C121.716 141.786 117.592 142.864 112.562 142.864C107.633 142.864 103.66 141.639 100.642 139.188C97.7251 136.639 96.2665 133.257 96.2665 129.042V78.1628H90.5329C90.5327 74.9277 90.5327 74.1435 90.5327 72.2809C90.5327 70.3202 91.1782 69.484 92.4859 69.484H96.6244V57.3928C97.0267 55.2361 100.944 52.2822 104.264 52.2822C105.269 52.2822 106.376 52.3803 107.583 52.5763V69.3399H128.353C128.856 71.8887 129.311 73.4082 129.311 75.3689C129.311 77.2315 128.657 78.1628 127.35 78.1628H107.583V127.277C107.583 129.336 108.086 130.953 109.092 132.13C110.199 133.208 111.557 133.747 113.166 133.747C116.888 133.747 118.749 131.345 118.749 126.542V115.807L118.296 108.896C119.604 108.602 120.912 108.455 122.219 108.455C123.628 108.455 124.935 108.651 126.142 109.043C128.557 109.631 129.764 110.759 129.764 112.425V130.071Z" fill="#171E29"/>
<path d="M196.084 59.8307H220.297V70.3986H193.137L196.084 59.8307Z" fill="#E76F00"/>
</svg>
