<svg width="83" height="55" viewBox="0 0 83 55" fill="none" xmlns="http://www.w3.org/2000/svg">
<path d="M1.76896 47.2626V20.8503C1.76896 20.1498 1.64168 19.6562 1.38713 19.3697C1.13257 19.0513 0.67119 18.892 0.00298309 18.892C-0.0288363 18.0642 0.193898 17.4114 0.671188 16.9338C1.14848 16.4562 1.91215 16.2174 2.96218 16.2174C4.04404 16.2174 4.7918 16.7428 5.20545 17.7935C6.44641 16.7428 7.71918 16.2174 9.02378 16.2174C12.1739 16.2174 13.749 17.7776 13.749 20.898V29.2564C13.749 30.7211 13.2876 31.8355 12.3648 32.5997C13.4467 33.332 13.9876 34.542 13.9876 36.2296V42.1998C13.9876 43.7919 13.4308 45.0337 12.3171 45.9252C11.2352 46.8168 9.75562 47.2626 7.87828 47.2626H1.76896ZM8.11692 19.3697C7.2578 19.3697 6.39868 19.7995 5.53955 20.6592V31.1668H7.87828C8.51467 31.1668 9.02378 30.9917 9.40561 30.6415C9.78744 30.2912 9.97836 29.8295 9.97836 29.2564V21.1846C9.97836 19.9747 9.35788 19.3697 8.11692 19.3697ZM5.53955 34.3191V44.1103H7.97374C8.64194 44.1103 9.18287 43.9511 9.59653 43.6327C10.0102 43.2824 10.217 42.8048 10.217 42.1998V36.2296C10.217 35.6246 10.0102 35.1629 9.59653 34.8445C9.18287 34.4942 8.64194 34.3191 7.97374 34.3191H5.53955Z" fill="white"/>
<path d="M24.636 27.7757C24.636 26.2155 24.5247 24.91 24.3019 23.8593C25.2565 23.7319 26.2906 23.6682 27.4043 23.6682C27.9452 23.6682 28.2157 23.907 28.2157 24.3847V50.6537C28.2157 52.0865 27.7066 53.1691 26.6884 53.9015C25.702 54.6338 24.3656 55 22.6791 55C20.9927 55 19.6881 54.6816 18.7654 54.0447C17.8426 53.4079 17.3812 52.5323 17.3812 51.4178V49.6507C17.3812 49.1094 17.763 48.7273 18.5267 48.5044C18.9085 48.4088 19.3063 48.3611 19.7199 48.3611C20.1654 48.3611 20.595 48.4088 21.0086 48.5044C20.9132 49.2686 20.8654 49.9372 20.8654 50.5104V50.7492C20.8654 51.5452 21.4859 51.9432 22.7269 51.9432C23.9996 51.9432 24.636 51.386 24.636 50.2716V45.5431C23.8405 46.3392 22.8064 46.7372 21.5336 46.7372C20.2927 46.7372 19.2904 46.3392 18.5267 45.5431C17.763 44.7153 17.3812 43.5212 17.3812 41.961V27.8235C17.3812 27.1548 17.2539 26.6772 16.9994 26.3907C16.7766 26.1041 16.3312 25.9608 15.663 25.9608C15.6311 25.1648 15.8539 24.5439 16.3312 24.0981C16.8403 23.6205 17.5403 23.3817 18.4313 23.3817C19.3222 23.3817 19.9586 23.6364 20.3404 24.1458C20.7541 24.6553 20.9609 25.4991 20.9609 26.6772V41.9132C20.9609 42.964 21.3745 43.4894 22.2018 43.4894C22.6473 43.4894 23.1087 43.3461 23.586 43.0595C24.0633 42.7411 24.4133 42.3909 24.636 42.0088V27.7757Z" fill="white"/>
<path d="M52.3148 28.4922C52.3148 27.8554 52.1238 27.3618 51.742 27.0116C51.3602 26.6295 50.8829 26.4384 50.3101 26.4384C49.1328 26.4384 48.5442 26.932 48.5442 27.919V34.749L50.8352 33.0295C51.8216 32.2972 52.3148 30.7847 52.3148 28.4922ZM44.9645 43.0118V28.0623C44.9645 24.9419 46.7941 23.3817 50.4533 23.3817C54.1444 23.3817 55.9899 25.1329 55.9899 28.6355C55.9899 30.0365 55.7353 31.326 55.2262 32.5042C54.7171 33.6823 54.0171 34.5738 53.1262 35.1788L48.5442 38.3311V42.6774C48.5442 44.0148 49.1646 44.6834 50.4056 44.6834C51.6784 44.6834 52.3148 43.9352 52.3148 42.4386V41.3401L52.1716 39.0953C52.5852 38.9998 52.9989 38.952 53.4125 38.952C53.858 38.952 54.2716 39.0157 54.6535 39.1431C55.4171 39.3341 55.799 39.7003 55.799 40.2416V43.6804C55.799 44.9541 55.2899 45.9571 54.2717 46.6894C53.2853 47.3899 51.9647 47.7402 50.3101 47.7402C46.7464 47.7402 44.9645 46.164 44.9645 43.0118Z" fill="white"/>
<path d="M63.3106 18.4661C61.7428 18.4661 60.9589 17.4263 60.9589 15.3467C60.9589 13.2671 61.7428 12.2272 63.3106 12.2272C64.8784 12.2272 65.6623 13.2671 65.6623 15.3467C65.6623 17.4263 64.8784 18.4661 63.3106 18.4661ZM58 20.4999H65.3888V42.7202C65.3888 43.4864 65.5164 44.0337 65.7716 44.362C66.0633 44.6904 66.592 44.8546 67.3576 44.8546C67.3941 45.8032 67.1389 46.5329 66.592 47.0437C66.0815 47.5544 65.3159 47.8098 64.295 47.8098C63.2741 47.8098 62.5085 47.4997 61.998 46.8795C61.5241 46.2592 61.2871 45.2377 61.2871 43.8148V24.0036H57.5917C57.3365 23.055 57.2089 22.234 57.2089 21.5408C57.2089 20.8111 57.526 20.4999 58 20.4999Z" fill="#E76F00"/>
<path d="M82.5113 43.0486C82.5113 44.5809 81.9279 45.7667 80.7612 46.6058C79.5945 47.4085 78.0997 47.8098 76.2767 47.8098C74.4902 47.8098 73.05 47.3538 71.9562 46.4417C70.8989 45.4931 70.3703 44.2343 70.3703 42.6655V23.7299L68.6749 24.0036C68.4197 23.055 68.292 22.234 68.292 21.5408C68.292 20.8111 68.526 20.4999 69 20.4999H70.5V15.9999C70.6458 15.1973 72.0656 14.098 73.2688 14.098C73.6334 14.098 74.0345 14.1344 74.472 14.2074V20.4463H81.9999C82.1822 21.3949 82.3472 21.9604 82.3472 22.6901C82.3472 23.3833 82.1102 23.7299 81.6362 23.7299H74.472V42.0088C74.472 42.7749 74.6543 43.3769 75.0189 43.8148C75.4199 44.2161 75.9121 44.4168 76.4955 44.4168C77.8445 44.4168 78.519 43.5229 78.519 41.7351V37.7401L78.3549 35.1679C78.8289 35.0584 79.3028 35.0037 79.7768 35.0037C80.2872 35.0037 80.7612 35.0767 81.1987 35.2226C82.0738 35.4415 82.5113 35.8611 82.5113 36.4813V43.0486Z" fill="#E76F00"/>
<path d="M21.0179 17.0695C22.7477 18.9723 19 22 19 22C19 22 26.4485 18.191 24.4312 15.4781C22.5472 12.9483 20.9998 10.5 28.4999 6C28.4999 6 15.9999 10.5 21.0179 17.0695Z" fill="#E76F00"/>
<path d="M22.5006 0.68457C22.5006 0.68457 32.9986 13.3338 26.9312 18.8692C22.264 23.3096 18.4313 19.1846 18.4313 19.1846C15.663 15.9338 16.9999 11.5 17.9313 10.1846C19.4999 7.5 23.636 6.5 22.5006 0.68457Z" fill="#E76F00"/>
<path d="M42.9999 43.763C42.9999 45.1266 42.4665 46.1818 41.3999 46.9286C40.3332 47.6429 38.9665 48 37.2999 48C35.6665 48 34.3499 47.5942 33.3499 46.7825C32.3832 45.9383 31.8999 44.8182 31.8999 43.4221V26.5714H29.9999C29.9999 25.5 29.9999 25.2403 29.9999 24.6234C29.9999 23.974 30.2138 23.6971 30.6471 23.6971H32.0185V19.6926C32.1518 18.9783 33.4499 18 34.5499 18C34.8832 18 35.2499 18.0325 35.6499 18.0974V23.6494H42.5324C42.699 24.4935 42.8499 24.9968 42.8499 25.6461C42.8499 26.263 42.6332 26.5714 42.1999 26.5714H35.6499V42.8377C35.6499 43.5195 35.8165 44.0552 36.1499 44.4448C36.5165 44.8019 36.9665 44.9805 37.4999 44.9805C38.7332 44.9805 39.3499 44.1851 39.3499 42.5942V39.039L39.1999 36.75C39.6332 36.6526 40.0665 36.6039 40.4999 36.6039C40.9665 36.6039 41.3999 36.6688 41.7999 36.7987C42.5999 36.9935 42.9999 37.3669 42.9999 37.9188V43.763Z" fill="white"/>
<path d="M64.9764 20.5H72.9999V24H63.9999L64.9764 20.5Z" fill="#E76F00"/>
</svg>
