<?xml version="1.0" encoding="utf-8"?>
<!-- Generator: Adobe Illustrator 26.2.1, SVG Export Plug-In . SVG Version: 6.00 Build 0)  -->
<svg version="1.1" xmlns="http://www.w3.org/2000/svg" xmlns:xlink="http://www.w3.org/1999/xlink" x="0px" y="0px"
	 viewBox="0 0 82 145" style="enable-background:new 0 0 82 145;" xml:space="preserve">
<style type="text/css">
	.st0{display:none;}
	.st1{display:inline;fill:#E76F00;}
	.st2{fill:#E76F00;}
</style>
<g id="Camada_1" class="st0">
	<path class="st1" d="M28.9,111.5C40.7,124.4,15.1,145,15.1,145s50.7-25.9,37-44.4C39.3,83.4,28.8,66.8,79.8,36.2
		C79.8,36.2-5.3,66.8,28.9,111.5z"/>
	<path class="st1" d="M25,134.9"/>
</g>
<g id="Camada_2">
	<g>
		<path class="st2" d="M28.9,111.5C3.4,78.2,44.1,52.7,66.6,41.9C54.2,18.4,39,0,39,0c7.7,39.6-20.4,46.4-31.1,64.6
			c-6.3,8.9-15.4,39.1,3.4,61.2c0,0,5.2,5.6,13.8,9.1C30.6,127.9,35.3,118.5,28.9,111.5z"/>
		<path class="st2" d="M67.7,44c-37,25.8-27.2,41-15.6,56.7c8.8,11.8-8.8,26.6-22.6,35.8c10.4,2.8,24.3,1.8,39.6-12.8
			C90.8,104,81.5,70.9,67.7,44z"/>
		<path class="st2" d="M79.8,36.2c0,0-5.5,2-13.2,5.7c0.4,0.7,0.7,1.4,1.1,2.1C71.3,41.5,75.3,38.9,79.8,36.2z"/>
		<path class="st2" d="M15.1,145c0,0,6.6-3.4,14.4-8.5c-1.6-0.4-3.1-1-4.5-1.5C20.4,140.8,15.1,145,15.1,145z"/>
	</g>
</g>
</svg>
