<svg width="40" height="40" viewBox="0 0 40 40" fill="none" xmlns="http://www.w3.org/2000/svg">
<path d="M27.5 6.66671C27.5 4.82587 26.0075 3.33337 24.1667 3.33337C22.3259 3.33337 20.8334 4.82587 20.8334 6.66671C20.8334 7.71171 20.8334 14.7842 20.8334 15.8334C20.8334 17.6742 22.3259 19.1667 24.1667 19.1667C26.0075 19.1667 27.5 17.6742 27.5 15.8334C27.5 14.7842 27.5 7.71171 27.5 6.66671Z" fill="#33D375"/>
<path d="M35.8333 15.8333C35.8333 17.6742 34.3408 19.1667 32.5 19.1667C31.5041 19.1667 29.1666 19.1667 29.1666 19.1667C29.1666 19.1667 29.1666 16.6783 29.1666 15.8333C29.1666 13.9925 30.6591 12.5 32.5 12.5C34.3408 12.5 35.8333 13.9925 35.8333 15.8333Z" fill="#33D375"/>
<path d="M6.66671 11.6666C4.82587 11.6666 3.33337 13.1591 3.33337 15C3.33337 16.8408 4.82587 18.3333 6.66671 18.3333C7.71171 18.3333 14.7842 18.3333 15.8334 18.3333C17.6742 18.3333 19.1667 16.8408 19.1667 15C19.1667 13.1591 17.6742 11.6666 15.8334 11.6666C14.7842 11.6666 7.71171 11.6666 6.66671 11.6666Z" fill="#40C4FF"/>
<path d="M15.8333 3.33337C17.6742 3.33337 19.1667 4.82587 19.1667 6.66671C19.1667 7.66254 19.1667 10 19.1667 10C19.1667 10 16.6783 10 15.8333 10C13.9925 10 12.5 8.50754 12.5 6.66671C12.5 4.82587 13.9925 3.33337 15.8333 3.33337Z" fill="#40C4FF"/>
<path d="M11.6666 32.505C11.6666 34.3433 13.1591 35.8333 15 35.8333C16.8408 35.8333 18.3333 34.3433 18.3333 32.505C18.3333 31.4616 18.3333 24.3991 18.3333 23.3516C18.3333 21.5133 16.8408 20.0233 15 20.0233C13.1591 20.0233 11.6666 21.5133 11.6666 23.3516C11.6666 24.3991 11.6666 31.4616 11.6666 32.505Z" fill="#E91E63"/>
<path d="M3.33337 23.3516C3.33337 21.5133 4.82587 20.0233 6.66671 20.0233C7.66254 20.0233 10 20.0233 10 20.0233C10 20.0233 10 22.5075 10 23.3516C10 25.19 8.50754 26.68 6.66671 26.68C4.82587 26.68 3.33337 25.19 3.33337 23.3516Z" fill="#E91E63"/>
<path d="M32.5 27.5C34.3408 27.5 35.8333 26.0075 35.8333 24.1667C35.8333 22.3259 34.3408 20.8334 32.5 20.8334C31.455 20.8334 24.3825 20.8334 23.3333 20.8334C21.4925 20.8334 20 22.3259 20 24.1667C20 26.0075 21.4925 27.5 23.3333 27.5C24.3817 27.5 31.455 27.5 32.5 27.5Z" fill="#FFC107"/>
<path d="M23.3333 35.8333C21.4925 35.8333 20 34.3408 20 32.5C20 31.5041 20 29.1666 20 29.1666C20 29.1666 22.4883 29.1666 23.3333 29.1666C25.1742 29.1666 26.6667 30.6591 26.6667 32.5C26.6667 34.3408 25.1742 35.8333 23.3333 35.8333Z" fill="#FFC107"/>
</svg>
